<svg width="37" height="37" fill="none" xmlns="http://www.w3.org/2000/svg"><path d="M18.5 6.167c-6.814 0-12.334 5.482-12.334 12.25 0 5.42 3.53 9.999 8.433 11.622.617.107.848-.26.848-.582 0-.29-.015-1.255-.015-2.281-3.099.566-3.9-.75-4.147-1.44-.139-.352-.74-1.44-1.264-1.73-.432-.23-1.049-.796-.016-.812.971-.015 1.665.889 1.896 1.256 1.11 1.853 2.883 1.332 3.593 1.01.107-.796.431-1.332.786-1.638-2.744-.306-5.612-1.363-5.612-6.048 0-1.332.478-2.435 1.264-3.293-.123-.306-.555-1.561.124-3.246 0 0 1.033-.321 3.391 1.256a11.519 11.519 0 013.084-.414c1.048 0 2.096.138 3.083.414 2.359-1.593 3.392-1.256 3.392-1.256.678 1.685.246 2.94.123 3.247.786.857 1.264 1.944 1.264 3.292 0 4.7-2.883 5.742-5.627 6.048.447.383.833 1.118.833 2.267 0 1.638-.016 2.955-.016 3.368 0 .322.231.705.848.582 5.02-1.683 8.4-6.36 8.402-11.622 0-6.768-5.519-12.25-12.333-12.25z" fill="#fff"/></svg>