<svg width="37" height="37" fill="none" xmlns="http://www.w3.org/2000/svg"><path d="M7.708 15.417A3.092 3.092 0 004.625 18.5a3.092 3.092 0 003.083 3.083 3.092 3.092 0 003.084-3.083 3.092 3.092 0 00-3.084-3.083zm21.584 0a3.092 3.092 0 00-3.084 3.083 3.092 3.092 0 003.084 3.083 3.092 3.092 0 003.083-3.083 3.092 3.092 0 00-3.083-3.083zm-10.792 0a3.092 3.092 0 00-3.083 3.083 3.092 3.092 0 003.083 3.083 3.092 3.092 0 003.083-3.083 3.092 3.092 0 00-3.083-3.083z" stroke="#FAFAFA" stroke-width="1.5"/></svg>