<svg version="1.0" xmlns="http://www.w3.org/2000/svg" width="493.333" height="493.333" viewBox="0 0 370 370"><path d="M67.1 59.2c-2.3 9.5-4.4 18.2-4.6 19.3-.2 1.1-1.5 6.5-2.8 11.9l-2.5 9.9-8.6 8c-27.9 25.7-36.6 54.3-24 79 4.3 8.4 4.3 8.4 12.9 17.2 8.2 8.3 13.3 12 24.4 17.5 19.1 9.5 36.7 13.3 61.9 13.4h17.4l-.7 7.5c-.3 4.2-.8 9.2-1 11.1-.7 6.4-1.7 15.5-2 17.5-.1 1.1-.6 4.7-1 8s-1 6.9-1.2 8c-.2 1.1-.6 3.1-.7 4.5-.8 6.3-5.1 19.4-7.2 22-3.1 3.6-3 4.4.4 6.8 6.6 4.8 25.2 8.2 42.7 7.9 12-.2 13.5-.5 18.8-3.1 3.8-1.8 6.9-4.2 9-7.2 2.7-3.7 3.7-4.3 6.7-4.4 12.8-.1 32.3-9.8 46.7-23.2 5-4.8 13.9-15.8 12.6-15.8-.4 0-.3-.4.2-.8 1.8-1.3 4.5-7.9 7.1-17.7.4-1.7.8-13.6.9-26.5.1-29.2.9-31.8 12.1-40.1 11.9-8.8 19-8.7 31.8.5 3.3 2.4 8.7 7 12 10.2 12 11.8 12.6 20.8 1.9 29.8-3.2 2.7-15.7 8.9-20.3 10.1-1.4.3-3.6 1.5-5 2.5-3.6 2.7-1.5 4.3 5.7 4.3 12.2.1 27.4-4.1 32.5-9 9.7-9.2 10.2-25.6 1.1-39.3-3.1-4.7-13.2-14.8-15.5-15.5-1-.4-1.8-1-1.8-1.5 0-.4-4.4-3-9.7-5.7-9.2-4.5-10.3-4.8-18.3-5-7.3-.2-9.4.1-13.9 2.2-7.6 3.6-15.1 11.7-20.4 22.4l-4.5 8.9.2 16.1c.2 8.9-.1 18.5-.6 21.4-.5 2.8-1 6.3-1.2 7.7-1.5 10.1-8.9 25.1-16.1 32.5-8 8.2-22.1 16.3-33 18.9-1.6.4-3.7.9-4.6 1.2-1.4.4-1.9-.7-2.8-5.8-1.5-8.7-8.8-23.2-22.1-43.3-6.1-9.2-10.8-17-10.6-17.2.3-.3 3.5-.7 7.3-.9 15.1-.9 32.3-5.2 45.9-11.4 23.6-10.8 40.2-29 46.1-50.5.3-1.1.7-6.7.9-12.5.6-19.8-5.8-34.7-22.3-52.1-4.5-4.7-7.4-8.6-7.7-10.5-.3-1.6-1.9-9.7-3.5-17.9-1.7-8.3-3.2-16.1-3.4-17.5-.3-1.4-1.3-6.4-2.2-11.3-2-10-1.5-10.2-8.7 3.3-2.5 4.7-5.8 10.7-7.4 13.5-1.6 2.7-3.8 6.8-4.9 9l-2.2 4.4c-.2.2-4-.6-8.5-1.8-4.6-1.2-12.3-2.8-17.3-3.5-8.9-1.2-34.4-1.4-46-.2-3.3.3-8.9.8-12.5 1.1-3.6.3-7.4.7-8.5.9-1.2.2-6.1.7-11 1l-9 .7-8.1-13.8c-4.5-7.6-9.4-16.2-11-19-1.6-2.9-3.2-5.3-3.5-5.3-.3 0-2.4 7.8-4.8 17.2z"/></svg>