<svg width="87" height="46" fill="none" xmlns="http://www.w3.org/2000/svg"><path d="M81.365 3.403c.923.544 1.779 1.214 2.645 1.845.867.632 1.908 1.273 2.375 2.266a1.99 1.99 0 01-.055 1.882 1.422 1.422 0 01-.236.305 1.813 1.813 0 01-2.2.633 1.762 1.762 0 01-1.033-1.515c-.674-.543-1.393-1.037-2.09-1.535l.019.005c-.026-.018-.043-.033-.071-.042-.017-.015-.026-.018-.043-.033a.077.077 0 01-.042-.033l.01.003a.075.075 0 01-.036-.021s-.01-.003-.007-.013a24.12 24.12 0 00-1.943-1.22 23.711 23.711 0 00-2.177-.998 13.294 13.294 0 00-1.055-.312 29.006 29.006 0 00-2.795-.42c-1.578-.132-3.162-.277-4.748-.307-.86-.015-1.74-.076-2.615-.043-.863.026-1.738.06-2.594.099-.956.093-1.92.183-2.88.286-.482.045-.972.15-1.463.224-.447.066-.906.139-1.363.202-1.43.287-2.83.582-4.249.934-1.452.364-2.878.777-4.306 1.2-.932.329-1.866.668-2.798.997-.478.172-.939.39-1.403.587-.465.196-.927.383-1.392.579-1.236.584-2.447 1.154-3.65 1.8-1.283.673-2.517 1.393-3.767 2.13a178.37 178.37 0 00-4.313 2.844c-1.332.91-2.585 1.936-3.834 2.954-.83.725-1.66 1.45-2.449 2.217a70.413 70.413 0 00-2.357 2.4 62.093 62.093 0 00-1.954 2.343 83.138 83.138 0 00-1.766 2.377c-1.36 2.027-2.752 4.056-3.9 6.21.043-.072.082-.133.114-.207-.165.347-.32.698-.467 1.05a25.625 25.625 0 00-.575 1.875c-.262.923-1.287 1.465-2.199 1.196a1.78 1.78 0 01-1.195-2.2c.431-1.53.943-3.016 1.756-4.392a97.747 97.747 0 013.117-4.866c1.039-1.539 2.142-3.048 3.352-4.463a70.785 70.785 0 012.158-2.397c.68-.716 1.401-1.39 2.105-2.078.26-.247.537-.478.808-.721.42-.366.825-.747 1.262-1.097.687-.559 1.357-1.132 2.066-1.663 1.57-1.152 3.148-2.292 4.795-3.348 3.326-2.115 6.758-4.062 10.399-5.583 1.796-.751 3.612-1.497 5.485-2.049.924-.27 1.847-.57 2.782-.805.935-.234 1.881-.507 2.824-.698 1.03-.206 2.056-.466 3.095-.629.972-.15 1.942-.291 2.915-.442.45-.076.924-.092 1.375-.136.517-.056 1.03-.102 1.557-.155.464-.05.93-.038 1.394-.057.55-.026 1.106-.038 1.656-.064.79-.027 1.586.031 2.374.045.694.017 1.388.066 2.089.096 2.092.118 4.208.263 6.248.699.315.062.625.143.932.234 1.497.473 2.95 1.205 4.313 2.025z" fill="#fff"/><path d="M80.64 7.162l-.01-.003-.01-.003.02.006zm.016.015l-.01-.003.01.003zm.084.067c.017.015.036.02.043.033-.016-.015-.023-.028-.042-.033zM6.517 10.566a.528.528 0 00-.028.128c-.548 2.56-.813 5.15-1.122 7.75-.163 1.328-.374 2.642-.559 3.974a154.558 154.558 0 00-.525 4.245c-.04.77-.08 1.54-.116 2.301-.016.371.012.734.028 1.104.003.376.02.746.023 1.122.053.704.108 1.398.17 2.105.051.64.165 1.279.256 1.921.188.848.356 1.69.612 2.517.134.394.283.772.452 1.155.094.174.195.36.3.537l.2.278a2.5 2.5 0 00.489.458c.192.13.386.249.582.36.338.162.67.312 1.016.445.397.138.8.258 1.218.36-.02-.005-.039-.011-.051-.005.452.093.91.165 1.374.219.419.03.846.031 1.267.02a20.325 20.325 0 001.862-.232c.392-.093.791-.173 1.183-.266.424-.093.834-.243 1.237-.374l-.01-.003c.482-.181.975-.37 1.46-.56.581-.276 1.158-.533 1.717-.838.745-.405 1.471-.816 2.213-1.243 1.194-.69 2.373-1.395 3.544-2.113a149.833 149.833 0 004.924-3.29c1.693-1.178 3.433-2.3 5.06-3.572.159-.15.325-.29.485-.44.015-.017.027-.024.033-.043a1.79 1.79 0 012.238-.694c.884.397 1.278 1.462.882 2.346-.212.47-.595.846-.966 1.185-.383.346-.786.685-1.2.99-.768.556-1.553 1.095-2.329 1.638-1.583 1.086-3.14 2.19-4.729 3.263a102.87 102.87 0 01-4.86 3.038l-2.568 1.493c-.856.498-1.734.927-2.628 1.34-.872.41-1.774.748-2.701 1.027a19.06 19.06 0 01-2.872.684c-.762.109-1.506.191-2.274.215-1.223.045-2.445-.16-3.639-.46-1.184-.298-2.378-.808-3.393-1.504-.982-.665-1.687-1.593-2.22-2.647-.717-1.422-1.04-2.977-1.365-4.522-.105-.49-.145-.992-.219-1.483a22.183 22.183 0 01-.143-1.21 59.652 59.652 0 01-.18-3.098c-.008-.43-.045-.869-.025-1.29.028-.587.064-1.17.095-1.766.082-1.55.298-3.092.504-4.637.208-1.513.427-3.033.635-4.547.205-1.472.35-2.951.534-4.42.09-.692.212-1.386.34-2.068.112-.624.207-1.263.385-1.867.263-.924 1.278-1.468 2.2-1.196.94.236 1.469 1.237 1.204 2.17z" fill="#fff"/><path d="M16.337 40.673l.013-.006c-.003.01-.003.01-.013.006z" fill="#fff"/></svg>