<svg width="37" height="37" viewBox="0 0 37 37" fill="none" xmlns="http://www.w3.org/2000/svg">
<path d="M18.4998 6.16669C11.6857 6.16669 6.1665 11.6486 6.1665 18.4168C6.1665 23.8375 9.69692 28.416 14.5994 30.0391C15.2161 30.1463 15.4473 29.7788 15.4473 29.4572C15.4473 29.1663 15.4319 28.2016 15.4319 27.1757C12.3332 27.7422 11.5315 26.4253 11.2848 25.7363C11.1461 25.3841 10.5448 24.2969 10.0207 24.0059C9.589 23.7762 8.97234 23.2097 10.0053 23.1944C10.9765 23.1791 11.6703 24.0825 11.9015 24.45C13.0115 26.3028 14.7844 25.7822 15.4936 25.4606C15.6015 24.6644 15.9253 24.1284 16.2798 23.8222C13.5357 23.5159 10.6682 22.4594 10.6682 17.7737C10.6682 16.4415 11.1461 15.339 11.9323 14.4815C11.809 14.1752 11.3773 12.9196 12.0557 11.2352C12.0557 11.2352 13.0886 10.9136 15.4473 12.4908C16.434 12.2152 17.4823 12.0774 18.5307 12.0774C19.579 12.0774 20.6273 12.2152 21.614 12.4908C23.9728 10.8983 25.0057 11.2352 25.0057 11.2352C25.684 12.9196 25.2523 14.1752 25.129 14.4815C25.9153 15.339 26.3932 16.4262 26.3932 17.7737C26.3932 22.4747 23.5103 23.5159 20.7661 23.8222C21.2132 24.205 21.5986 24.94 21.5986 26.0885C21.5986 27.7269 21.5832 29.0438 21.5832 29.4572C21.5832 29.7788 21.8144 30.1616 22.4311 30.0391C27.4514 28.3557 30.8318 23.6798 30.8332 18.4168C30.8332 11.6486 25.314 6.16669 18.4998 6.16669Z" fill="white"/>
</svg>
