<svg width="37" height="37" viewBox="0 0 37 37" fill="none" xmlns="http://www.w3.org/2000/svg">
<path d="M18.5001 6.16669C11.6859 6.16669 6.16675 11.6486 6.16675 18.4168C6.16675 23.8375 9.69716 28.416 14.5997 30.0391C15.2163 30.1463 15.4476 29.7788 15.4476 29.4572C15.4476 29.1663 15.4322 28.2016 15.4322 27.1757C12.3334 27.7422 11.5317 26.4253 11.2851 25.7363C11.1463 25.3841 10.5451 24.2969 10.0209 24.0059C9.58925 23.7762 8.97258 23.2097 10.0055 23.1944C10.9767 23.1791 11.6705 24.0825 11.9017 24.45C13.0117 26.3028 14.7847 25.7822 15.4938 25.4606C15.6017 24.6644 15.9255 24.1284 16.2801 23.8222C13.5359 23.5159 10.6684 22.4594 10.6684 17.7737C10.6684 16.4415 11.1463 15.339 11.9326 14.4815C11.8092 14.1752 11.3776 12.9196 12.0559 11.2352C12.0559 11.2352 13.0888 10.9136 15.4476 12.4908C16.4342 12.2152 17.4826 12.0774 18.5309 12.0774C19.5792 12.0774 20.6276 12.2152 21.6142 12.4908C23.973 10.8983 25.0059 11.2352 25.0059 11.2352C25.6842 12.9196 25.2526 14.1752 25.1292 14.4815C25.9155 15.339 26.3934 16.4262 26.3934 17.7737C26.3934 22.4747 23.5105 23.5159 20.7663 23.8222C21.2134 24.205 21.5988 24.94 21.5988 26.0885C21.5988 27.7269 21.5834 29.0438 21.5834 29.4572C21.5834 29.7788 21.8147 30.1616 22.4313 30.0391C27.4517 28.3557 30.8321 23.6798 30.8334 18.4168C30.8334 11.6486 25.3142 6.16669 18.5001 6.16669Z" fill="black"/>
</svg>
