<svg width="37" height="37" viewBox="0 0 37 37" fill="none" xmlns="http://www.w3.org/2000/svg">
<path d="M7.70833 15.4167C6.0125 15.4167 4.625 16.8042 4.625 18.5001C4.625 20.1959 6.0125 21.5834 7.70833 21.5834C9.40417 21.5834 10.7917 20.1959 10.7917 18.5001C10.7917 16.8042 9.40417 15.4167 7.70833 15.4167Z" stroke="#FAFAFA" stroke-width="1.5"/>
<path d="M29.2916 15.4167C27.5958 15.4167 26.2083 16.8042 26.2083 18.5001C26.2083 20.1959 27.5958 21.5834 29.2916 21.5834C30.9874 21.5834 32.3749 20.1959 32.3749 18.5001C32.3749 16.8042 30.9874 15.4167 29.2916 15.4167Z" stroke="#FAFAFA" stroke-width="1.5"/>
<path d="M18.5001 15.4167C16.8042 15.4167 15.4167 16.8042 15.4167 18.5001C15.4167 20.1959 16.8042 21.5834 18.5001 21.5834C20.1959 21.5834 21.5834 20.1959 21.5834 18.5001C21.5834 16.8042 20.1959 15.4167 18.5001 15.4167Z" stroke="#FAFAFA" stroke-width="1.5"/>
</svg>
