<?xml version="1.0" standalone="no"?>
<!DOCTYPE svg PUBLIC "-//W3C//DTD SVG 20010904//EN"
 "http://www.w3.org/TR/2001/REC-SVG-20010904/DTD/svg10.dtd">
<svg version="1.0" xmlns="http://www.w3.org/2000/svg"
 width="370.000000pt" height="370.000000pt" viewBox="0 0 370.000000 370.000000"
 preserveAspectRatio="xMidYMid meet">
<metadata>
Created by potrace 1.14, written by Peter Selinger 2001-2017
</metadata>
<g transform="translate(0.000000,370.000000) scale(0.100000,-0.100000)"
fill="#000000" stroke="none">
<path d="M671 3108 c-23 -95 -44 -182 -46 -193 -2 -11 -15 -65 -28 -119 l-25
-99 -86 -80 c-279 -257 -366 -543 -240 -790 43 -84 43 -84 129 -172 82 -83
133 -120 244 -175 191 -95 367 -133 619 -134 l174 0 -7 -75 c-3 -42 -8 -92
-10 -111 -7 -64 -17 -155 -20 -175 -1 -11 -6 -47 -10 -80 -4 -33 -10 -69 -12
-80 -2 -11 -6 -31 -7 -45 -8 -63 -51 -194 -72 -220 -31 -36 -30 -44 4 -68 66
-48 252 -82 427 -79 120 2 135 5 188 31 38 18 69 42 90 72 27 37 37 43 67 44
128 1 323 98 467 232 50 48 139 158 126 158 -4 0 -3 4 2 8 18 13 45 79 71 177
4 17 8 136 9 265 1 292 9 318 121 401 119 88 190 87 318 -5 33 -24 87 -70 120
-102 120 -118 126 -208 19 -298 -32 -27 -157 -89 -203 -101 -14 -3 -36 -15
-50 -25 -36 -27 -15 -43 57 -43 122 -1 274 41 325 90 97 92 102 256 11 393
-31 47 -132 148 -155 155 -10 4 -18 10 -18 15 0 4 -44 30 -97 57 -92 45 -103
48 -183 50 -73 2 -94 -1 -139 -22 -76 -36 -151 -117 -204 -224 l-45 -89 2
-161 c2 -89 -1 -185 -6 -214 -5 -28 -10 -63 -12 -77 -15 -101 -89 -251 -161
-325 -80 -82 -221 -163 -330 -189 -16 -4 -37 -9 -46 -12 -14 -4 -19 7 -28 58
-15 87 -88 232 -221 433 -61 92 -108 170 -106 172 3 3 35 7 73 9 151 9 323 52
459 114 236 108 402 290 461 505 3 11 7 67 9 125 6 198 -58 347 -223 521 -45
47 -74 86 -77 105 -3 16 -19 97 -35 179 -17 83 -32 161 -34 175 -3 14 -13 64
-22 113 -20 100 -15 102 -87 -33 -25 -47 -58 -107 -74 -135 -16 -27 -38 -68
-49 -90 -11 -22 -21 -42 -22 -44 -2 -2 -40 6 -85 18 -46 12 -123 28 -173 35
-89 12 -344 14 -460 2 -33 -3 -89 -8 -125 -11 -36 -3 -74 -7 -85 -9 -12 -2
-61 -7 -110 -10 l-90 -7 -81 138 c-45 76 -94 162 -110 190 -16 29 -32 53 -35
53 -3 0 -24 -78 -48 -172z"/>
</g>
</svg>
