<svg width="87" height="46" viewBox="0 0 87 46" fill="none" xmlns="http://www.w3.org/2000/svg">
<path d="M81.3646 3.40292C82.2883 3.94698 83.1436 4.61681 84.0101 5.24827C84.8767 5.87973 85.9177 6.521 86.3854 7.51425C86.682 8.1337 86.6637 8.79565 86.33 9.39568C86.2643 9.51185 86.1824 9.61274 86.0937 9.70123C85.6272 10.3976 84.6686 10.6774 83.8942 10.3339C83.2676 10.0549 82.9021 9.45679 82.8612 8.81905C82.1875 8.27587 81.468 7.78173 80.7706 7.28367C80.7801 7.2865 80.7897 7.28934 80.7897 7.28934C80.7638 7.27125 80.7475 7.25597 80.7187 7.24747C80.7023 7.23221 80.6927 7.22941 80.6764 7.21416C80.6572 7.20849 80.6409 7.19321 80.6341 7.18079L80.6437 7.18363C80.6341 7.18079 80.6245 7.17794 80.6082 7.16269C80.6082 7.16269 80.5986 7.15984 80.6014 7.15026C79.9694 6.71323 79.3288 6.30497 78.6577 5.92941C77.9426 5.56168 77.2286 5.2256 76.4812 4.93177C76.132 4.80774 75.784 4.71531 75.4263 4.62005C74.5022 4.43039 73.561 4.29824 72.6306 4.20056C71.0534 4.0682 69.4695 3.92347 67.8832 3.89268C67.0221 3.87805 66.1435 3.81651 65.2682 3.84982C64.4053 3.87638 63.5299 3.90972 62.6738 3.9487C61.7183 4.04173 60.7531 4.13196 59.7948 4.23459C59.3122 4.27969 58.8222 4.38517 58.3312 4.45904C57.8841 4.52506 57.4247 4.59781 56.9681 4.661C55.5382 4.94756 54.1372 5.24266 52.7191 5.59527C51.2666 5.95855 49.8412 6.37153 48.4129 6.79411C47.4813 7.12363 46.5469 7.46274 45.6153 7.79226C45.1371 7.96378 44.6764 8.18217 44.2117 8.37854C43.747 8.5749 43.2851 8.76163 42.8204 8.958C41.5844 9.54164 40.3731 10.1118 39.1709 10.7576C37.8873 11.4314 36.6527 12.1511 35.4029 12.8871C33.9509 13.8136 32.5123 14.7649 31.0901 15.7315C29.7577 16.6412 28.5052 17.6684 27.2557 18.686C26.4263 19.4107 25.5969 20.1354 24.807 20.903C23.9923 21.6841 23.2226 22.4891 22.4502 23.3036C21.7838 24.0764 21.1175 24.8493 20.4963 25.6459C19.8904 26.4262 19.3132 27.215 18.7303 28.0229C17.37 30.0505 15.978 32.0792 14.8308 34.2324C14.8727 34.1614 14.9117 34.0999 14.944 34.026C14.7787 34.3734 14.6231 34.7237 14.477 35.0767C14.2641 35.6916 14.0703 36.3121 13.9024 36.9508C13.64 37.8742 12.6145 38.4158 11.7034 38.1466C10.7636 37.8689 10.2423 36.8807 10.5076 35.9476C10.939 34.4171 11.451 32.9313 12.2642 31.5553C13.2545 29.898 14.2938 28.2865 15.381 26.6891C16.4196 25.1503 17.5225 23.641 18.7331 22.2261C19.4356 21.4014 20.1584 20.6139 20.8908 19.8292C21.5717 19.1128 22.2921 18.4394 22.9961 17.7507C23.2566 17.5044 23.5334 17.2733 23.8035 17.0299C24.2244 16.6641 24.6289 16.2832 25.0662 15.9327C25.7525 15.3744 26.4225 14.8007 27.132 14.27C28.7029 13.1179 30.2805 11.9783 31.9274 10.9217C35.2529 8.80736 38.6854 6.86026 42.3256 5.33947C44.1222 4.5878 45.9381 3.84177 47.8112 3.28996C48.7354 3.02081 49.6584 2.72007 50.5933 2.48536C51.5281 2.25065 52.4743 1.97755 53.417 1.78687C54.4477 1.5805 55.4734 1.32053 56.512 1.15819C57.4845 1.00761 58.4542 0.866623 59.4268 0.716049C59.8766 0.640433 60.3507 0.624082 60.8016 0.580072C61.3186 0.524292 61.8328 0.478136 62.3594 0.42519C62.8228 0.374421 63.2883 0.386853 63.7528 0.367688C64.3025 0.342424 64.8589 0.329612 65.4086 0.304348C66.1987 0.277131 66.9949 0.335132 67.7833 0.34911C68.4768 0.366353 69.1715 0.415198 69.8718 0.444866C71.9642 0.562637 74.0797 0.708055 76.1198 1.14404C76.4351 1.20596 76.7448 1.28706 77.0517 1.37775C78.5489 1.85142 80.0011 2.58291 81.3646 3.40292Z" fill="black"/>
<path d="M80.6398 7.16159L80.6302 7.15876C80.6302 7.15876 80.6302 7.15876 80.6206 7.15592C80.6302 7.15876 80.6302 7.15875 80.6398 7.16159Z" fill="black"/>
<path d="M80.6561 7.17686L80.6465 7.17402C80.6465 7.17402 80.6465 7.17402 80.6561 7.17686Z" fill="black"/>
<path d="M80.7407 7.24359C80.757 7.25885 80.7762 7.26448 80.783 7.2769C80.7666 7.26164 80.7599 7.24926 80.7407 7.24359Z" fill="black"/>
<path d="M6.51651 10.5662C6.50234 10.6141 6.49102 10.6525 6.48926 10.6937C5.94144 13.2534 5.67631 15.8444 5.36716 18.4434C5.20408 19.7716 4.99306 21.0856 4.80796 22.4178C4.60978 23.8295 4.44322 25.2402 4.28341 26.6632C4.24349 27.4335 4.20359 28.2037 4.16651 28.9644C4.1508 29.3352 4.17913 29.698 4.19502 30.0677C4.1985 30.4441 4.21439 30.8138 4.21787 31.1902C4.27059 31.894 4.32615 32.5882 4.38845 33.2948C4.43899 33.9354 4.55274 34.5738 4.64448 35.2161C4.83189 36.064 5.00015 36.9062 5.25644 37.7327C5.39025 38.1267 5.53929 38.5045 5.70754 38.8879C5.80213 39.0618 5.90348 39.2482 6.00766 39.425C6.07413 39.5176 6.14062 39.6103 6.20709 39.7029C6.27639 39.7859 6.35528 39.8718 6.43701 39.9481C6.51874 40.0244 6.60333 40.0911 6.69749 40.1606C6.88864 40.2901 7.08259 40.41 7.2794 40.5202C7.61724 40.6826 7.94831 40.8326 8.29464 40.9662C8.69175 41.1044 9.09456 41.2235 9.5126 41.3261C9.49342 41.3205 9.47424 41.3148 9.46181 41.3215C9.91429 41.4135 10.3724 41.4863 10.8363 41.54C11.2549 41.5698 11.6821 41.571 12.1026 41.5597C12.7307 41.5159 13.3511 41.428 13.9646 41.3278C14.3569 41.2352 14.756 41.155 15.1484 41.0623C15.5723 40.9686 15.9816 40.8185 16.3853 40.6875L16.3757 40.6847C16.8567 40.5036 17.3502 40.3157 17.8341 40.125C18.4162 39.8487 18.9928 39.5915 19.5518 39.2874C20.2973 38.8821 21.0235 38.4711 21.765 38.0437C22.9594 37.3539 24.1376 36.6488 25.3089 35.9313C26.9778 34.8708 28.6073 33.7673 30.2329 32.6419C31.9263 31.4634 33.6658 30.3403 35.2927 29.0693C35.452 28.9182 35.6181 28.7796 35.7775 28.6286C35.7927 28.6122 35.8052 28.6054 35.8108 28.5862C36.2599 27.843 37.2394 27.5277 38.0493 27.8921C38.9331 28.2888 39.3274 29.3542 38.9306 30.2381C38.719 30.7073 38.3364 31.0844 37.9652 31.4231C37.5816 31.7685 37.1788 32.1083 36.7653 32.4137C35.9966 32.9685 35.2115 33.5082 34.436 34.0506C32.8533 35.1367 31.2966 36.2408 29.7072 37.3144C28.1207 38.3785 26.4908 39.3775 24.8473 40.3517C23.9912 40.8495 23.135 41.3473 22.2788 41.8451C21.4227 42.3429 20.5452 42.7718 19.6513 43.1854C18.7795 43.5952 17.8767 43.9332 16.9497 44.2119C16.0074 44.507 15.0602 44.7485 14.078 44.8962C13.316 45.0048 12.5722 45.0873 11.8041 45.1106C10.5811 45.1559 9.35902 44.9512 8.16527 44.6506C6.98111 44.3528 5.78652 43.8434 4.77217 43.1474C3.79051 42.482 3.08455 41.5539 2.55147 40.4996C1.83487 39.0783 1.51235 37.5231 1.18699 35.9776C1.08151 35.4876 1.04207 34.9859 0.968205 34.4948C0.910026 34.0918 0.861423 33.6916 0.825254 33.2847C0.745304 32.2496 0.672125 31.2269 0.645789 30.1868C0.637299 29.7568 0.600027 29.3182 0.620313 28.8967C0.647579 28.3104 0.684421 27.727 0.714521 27.1311C0.797181 25.5809 1.01304 24.0389 1.21928 22.494C1.42661 20.9807 1.64636 19.4607 1.8537 17.9474C2.05928 16.4753 2.20448 14.9958 2.38805 13.5277C2.47809 12.8348 2.59976 12.1408 2.72816 11.4592C2.83956 10.8352 2.9346 10.196 3.11313 9.59181C3.37559 8.66833 4.3915 8.12388 5.31215 8.39592C6.25372 8.63244 6.7818 9.6331 6.51651 10.5662Z" fill="black"/>
<path d="M16.3373 40.6734L16.3498 40.6666C16.3469 40.6762 16.3469 40.6762 16.3373 40.6734Z" fill="black"/>
</svg>
